<svg xmlns="http://www.w3.org/2000/svg" viewBox="0 0 252.79 189.72"><defs><style>.cls-1{fill:#fff;}</style></defs><g id="图层_2" data-name="图层 2"><g id="图层_1-2" data-name="图层 1"><path class="cls-1" d="M180.22,168.51,159,189.72,4.39,35.11a15,15,0,0,1,0-21.22h0a15,15,0,0,1,21.22,0Z"/><path class="cls-1" d="M159.28,189.72l-21.22-21.21,89.12-89.12a15,15,0,0,1,21.21,0h0a15,15,0,0,1,0,21.22Z"/><path class="cls-1" d="M110.28,55.72,89.06,34.51,119.18,4.39a15,15,0,0,1,21.21,0h0a15,15,0,0,1,0,21.22Z"/><path class="cls-1" d="M156.28,99.72,135.06,78.51l30.12-30.12a15,15,0,0,1,21.21,0h0a15,15,0,0,1,0,21.22Z"/></g></g></svg>