<?xml version="1.0" encoding="utf-8"?>
<!-- Generator: Adobe Illustrator 23.0.0, SVG Export Plug-In . SVG Version: 6.00 Build 0)  -->
<svg version="1.1" id="图层_1" xmlns="http://www.w3.org/2000/svg" xmlns:xlink="http://www.w3.org/1999/xlink" x="0px" y="0px"
	 viewBox="0 0 400 400" style="enable-background:new 0 0 400 400;" xml:space="preserve">
<style type="text/css">
	.st0{fill:url(#SVGID_1_);}
	.st1{fill:url(#SVGID_2_);}
	.st2{fill:url(#SVGID_3_);}
</style>
<g>
	<linearGradient id="SVGID_1_" gradientUnits="userSpaceOnUse" x1="-14.9255" y1="179.7868" x2="193.1911" y2="243.4145">
		<stop  offset="0" style="stop-color:#89F2BB"/>
		<stop  offset="0.0649" style="stop-color:#80ECC2"/>
		<stop  offset="0.1726" style="stop-color:#66DDD3"/>
		<stop  offset="0.25" style="stop-color:#50D0E3"/>
		<stop  offset="0.5" style="stop-color:#4FABF9"/>
		<stop  offset="0.75" style="stop-color:#3686F6"/>
		<stop  offset="0.9944" style="stop-color:#1E57F5"/>
	</linearGradient>
	<path class="st0" d="M18.44,330.01V71.38c0,0,2.03-15.29,15.11-16.38c13.44,1.09,16.29,16.37,16.29,16.37v226.19h116.87v32.45
		H18.44z"/>
	<linearGradient id="SVGID_2_" gradientUnits="userSpaceOnUse" x1="172.9557" y1="166.8006" x2="391.524" y2="233.6236">
		<stop  offset="0" style="stop-color:#89F2BB"/>
		<stop  offset="0.0649" style="stop-color:#80ECC2"/>
		<stop  offset="0.1726" style="stop-color:#66DDD3"/>
		<stop  offset="0.25" style="stop-color:#50D0E3"/>
		<stop  offset="0.5" style="stop-color:#4FABF9"/>
		<stop  offset="0.75" style="stop-color:#3686F6"/>
		<stop  offset="0.9944" style="stop-color:#1E57F5"/>
	</linearGradient>
	<path class="st1" d="M202.81,330.01V71.35c-0.1-0.01-0.01-15.26,16.41-16.35c0.15,1.09,72.62,0,72.62,0
		c18.13,0,32.67,2.78,43.62,8.35c10.96,5.57,19.53,14.13,25.74,25.7c6.21,11.57,9.31,23.67,9.31,36.3c0,11.76-2.75,22.82-8.26,33.2
		c-5.5,10.38-13.82,18.76-24.93,25.14c14.35,4.88,25.38,13.2,33.1,24.95c7.72,11.76,11.58,25.64,11.58,41.65
		c0,12.88-2.35,24.86-7.04,35.92s-10.5,19.6-17.4,25.61c-6.91,6-15.57,10.54-25.98,13.6c-10.41,3.07-23.17,4.6-38.28,4.6H202.81z
		 M234.22,170.56h51.31c13.92,0,23.9-1.06,29.95-3.19c7.98-2.75,14-7.32,18.04-13.69c4.05-6.38,6.07-14.38,6.07-24.01
		c0-9.13-1.89-17.16-5.67-24.11c-3.78-6.94-9.17-11.69-16.19-14.26c-7.02-2.56-19.05-3.85-36.1-3.85h-47.43V170.56z M234.22,297.56
		h59.08c10.14,0,17.26-0.44,21.37-1.31c7.23-1.5,13.27-4,18.13-7.5s8.84-8.6,11.98-15.29c3.13-6.69,4.69-14.41,4.69-23.17
		c0-10.25-2.27-19.16-6.8-26.73c-4.53-7.57-10.82-12.88-18.86-15.95c-8.04-3.06-19.61-4.6-34.72-4.6h-54.87V297.56z"/>
</g>
<linearGradient id="SVGID_3_" gradientUnits="userSpaceOnUse" x1="202.8131" y1="71.1121" x2="202.8131" y2="71.1121">
	<stop  offset="0" style="stop-color:#22B573"/>
	<stop  offset="0.0969" style="stop-color:#22B37C"/>
	<stop  offset="0.2579" style="stop-color:#21AC96"/>
	<stop  offset="0.462" style="stop-color:#1FA2BF"/>
	<stop  offset="0.5674" style="stop-color:#1E9CD7"/>
	<stop  offset="0.8652" style="stop-color:#0075BE"/>
	<stop  offset="0.9944" style="stop-color:#005B97"/>
</linearGradient>
<path class="st2" d="M202.81,71.11"/>
</svg>
