<svg xmlns="http://www.w3.org/2000/svg" viewBox="0 0 194.79 211"><defs><style>.cls-1{fill:none;stroke:#fff;stroke-miterlimit:10;stroke-width:14px;}.cls-2{fill:#fff;}</style></defs><g id="图层_2" data-name="图层 2"><g id="图层_1_复制_2" data-name="图层 1_复制 2"><path class="cls-1" d="M96,142H19.06A12.06,12.06,0,0,1,7,129.94V7M36,7v98.94A12.06,12.06,0,0,0,48.06,118H93"/><path class="cls-1" d="M68,204V142m0-24V61.59a.6.6,0,0,1,.59-.59h56.57q17,0,25.31,1.41a37.35,37.35,0,0,1,14.93,5.91,36.56,36.56,0,0,1,11,12A32.31,32.31,0,0,1,180.76,97,33.87,33.87,0,0,1,162,127.36a.59.59,0,0,0,.08,1.1q12,3.87,18.64,12.53a34.45,34.45,0,0,1,7,21.55,42.58,42.58,0,0,1-4.54,19,38.23,38.23,0,0,1-12.39,14.73Q163,201.76,151.5,203q-7.22.79-34.82,1H96m1-93v7h19q16.89,0,21-.49,7.42-.87,11.67-5.13t4.25-11.18a15.73,15.73,0,0,0-3.66-10.79q-3.66-4.14-10.89-5Q134,84.9,113.6,84.9M113,180h10.56q15.51,0,19.68-.87a17.81,17.81,0,0,0,10.42-5.67q4-4.52,4-12.07a18.52,18.52,0,0,0-3.1-10.86,17.49,17.49,0,0,0-9-6.49q-5.88-2-25.45-2H97v7"/><rect class="cls-2" width="14" height="30" rx="7"/><rect class="cls-2" x="29" width="14" height="30" rx="7"/><rect class="cls-2" x="61" y="181" width="14" height="30" rx="7"/><rect class="cls-2" x="88" y="197" width="30" height="14" rx="7"/><rect class="cls-2" x="104" y="173" width="30" height="14" rx="7"/><rect class="cls-2" x="104" y="78" width="30" height="14" rx="7"/></g></g></svg>